<svg xmlns="http://www.w3.org/2000/svg" width="184.072" height="48" viewBox="0 0 184.072 48">
  <g id="pixeline_group_logo" transform="translate(8.317 -274.815)">
    <g id="Group_5" data-name="Group 5" transform="translate(32.541 287.326)">
      <path id="Path_48" data-name="Path 48" d="M13.465,281.485H24.116c4.665,0,7.179,3.581,7.179,7.886,0,4.269-2.514,7.713-7.179,7.713H19.509v7.368H13.465Zm9.872,5.783H19.509V291.3h3.828a2.026,2.026,0,0,0,0-4.031Z" transform="translate(-13.465 -281.485)" fill="#100f0c"/>
      <path id="Path_49" data-name="Path 49" d="M24.2,281.485h6.535v22.967H24.2Z" transform="translate(-4.067 -281.485)" fill="#100f0c"/>
      <path id="Path_50" data-name="Path 50" d="M40.867,297.429l-4.024,7.023h-7.85l7.353-11.776-6.86-11.191H37.3l3.562,6.541,3.5-6.541h7.886l-6.862,11.157,7.355,11.81H44.89Z" transform="translate(0.134 -281.485)" fill="#100f0c"/>
      <path id="Path_51" data-name="Path 51" d="M42.888,281.485H60.314v5.783H49.845v2.688H60.072v5.785H49.845v2.926H60.314v5.785H42.888Z" transform="translate(12.303 -281.485)" fill="#100f0c"/>
      <path id="Path_52" data-name="Path 52" d="M53.421,281.485h6.91v16.906H70.819v6.061h-17.4Z" transform="translate(21.527 -281.485)" fill="#100f0c"/>
      <path id="Path_53" data-name="Path 53" d="M63.938,281.485h6.569v22.967H63.938Z" transform="translate(30.738 -281.485)" fill="#100f0c"/>
      <path id="Path_54" data-name="Path 54" d="M75.254,292.126v12.326H68.685V281.485h6.766l7.542,11.572V281.485H89.56v22.967H83.252Z" transform="translate(34.895 -281.485)" fill="#100f0c"/>
      <path id="Path_55" data-name="Path 55" d="M81.042,281.485H97.5v5.783H87.613v2.688h9.656v5.785H87.613v2.926H97.5v5.785H81.042Z" transform="translate(45.717 -281.485)" fill="#100f0c"/>
    </g>
    <path id="Path_56" data-name="Path 56" d="M-8.294,305.294H2.151V294.823H-8.294v10.471Z" transform="translate(0.02 17.522)" fill="#ffb500"/>
    <path id="Path_57" data-name="Path 57" d="M-8.317,298.625H2.128V288.154H-8.317v10.471Z" transform="translate(0 11.681)" fill="#ffb500"/>
    <g id="Group_7" data-name="Group 7" transform="translate(4.322 287.325)">
      <path id="Path_58" data-name="Path 58" d="M-1.579,298.624H8.866V288.153H-1.579v10.471Z" transform="translate(1.579 -275.644)" fill="#ffb500"/>
      <path id="Path_59" data-name="Path 59" d="M-1.579,291.955H8.866V281.485H-1.579v10.471Z" transform="translate(1.579 -281.485)" fill="#ffb500"/>
    </g>
    <path id="Path_60" data-name="Path 60" d="M5.159,291.955H15.6V281.484H5.159v10.471Z" transform="translate(11.801 5.84)" fill="#ffb500"/>
    <path id="Path_61" data-name="Path 61" d="M5.159,285.286H15.6V274.815H5.159v10.471Z" transform="translate(11.801 0)" fill="#ffb500"/>
  </g>
</svg>
